<?xml version='1.0' encoding='UTF-8'?>
<svg viewBox="-6 -6 32 32" xmlns="http://www.w3.org/2000/svg" xmlns:xlink="http://www.w3.org/1999/xlink">
  <g id="Layer_1" transform="translate(-6, -6)" style="enable-background:new 0 0 32 32">
    <g id="Delete">
      <g>
        <path d="M18.8, 16L25.7, 9.1C26.1, 8.7 26.1, 8.1 25.7, 7.7L24.3, 6.3C23.9, 5.9 23.3, 5.9 22.9, 6.3L16, 13.2L9.1, 6.3C8.7, 5.9 8.1, 5.9 7.7, 6.3L6.3, 7.7C5.9, 8.1 5.9, 8.7 6.3, 9.1L13.2, 16L6.3, 22.9C5.9, 23.3 5.9, 23.9 6.3, 24.3L7.7, 25.7C8.1, 26.1 8.7, 26.1 9.1, 25.7L16, 18.8L22.9, 25.7C23.3, 26.1 23.9, 26.1 24.3, 25.7L25.7, 24.3C26.1, 23.9 26.1, 23.3 25.7, 22.9L18.8, 16z" fill="#727272" class="Black" />
      </g>
    </g>
  </g>
  <g id="Layer_1" transform="translate(-6, -6)" style="enable-background:new 0 0 32 32">
    <g id="Delete">
      <g>
        <path d="M18.8, 16L25.7, 9.1C26.1, 8.7 26.1, 8.1 25.7, 7.7L24.3, 6.3C23.9, 5.9 23.3, 5.9 22.9, 6.3L16, 13.2L9.1, 6.3C8.7, 5.9 8.1, 5.9 7.7, 6.3L6.3, 7.7C5.9, 8.1 5.9, 8.7 6.3, 9.1L13.2, 16L6.3, 22.9C5.9, 23.3 5.9, 23.9 6.3, 24.3L7.7, 25.7C8.1, 26.1 8.7, 26.1 9.1, 25.7L16, 18.8L22.9, 25.7C23.3, 26.1 23.9, 26.1 24.3, 25.7L25.7, 24.3C26.1, 23.9 26.1, 23.3 25.7, 22.9L18.8, 16z" fill="#727272" class="Black" />
      </g>
    </g>
  </g>
</svg>