<svg xmlns="http://www.w3.org/2000/svg" shape-rendering="geometricPrecision" text-rendering="geometricPrecision" image-rendering="optimizeQuality" fill-rule="evenodd" clip-rule="evenodd" viewBox="0 0 512 511.99">
    <path fill="#fc5347" fill-rule="nonzero" d="M256 0c70.68 0 134.69 28.66 181.01 74.98C483.35 121.31 512 185.31 512 255.99c0 70.68-28.66 134.69-74.99 181.02-46.32 46.32-110.33 74.98-181.01 74.98-70.68 0-134.69-28.66-181.02-74.98C28.66 390.68 0 326.67 0 255.99S28.65 121.31 74.99 74.98C121.31 28.66 185.32 0 256 0zm116.73 236.15v39.69c0 9.39-7.72 17.12-17.11 17.12H156.38c-9.39 0-17.11-7.7-17.11-17.12v-39.69c0-9.41 7.69-17.11 17.11-17.11h199.24c9.42 0 17.11 7.76 17.11 17.11zm37.32-134.21c-39.41-39.41-93.89-63.8-154.05-63.8-60.16 0-114.64 24.39-154.05 63.8-39.42 39.42-63.81 93.89-63.81 154.05 0 60.16 24.39 114.64 63.8 154.06 39.42 39.41 93.9 63.8 154.06 63.8s114.64-24.39 154.05-63.8c39.42-39.42 63.81-93.9 63.81-154.06s-24.39-114.63-63.81-154.05z"/>
</svg>