<svg width="100px" height="100px" viewBox="0 0 100 100" xmlns="http://www.w3.org/2000/svg"
     aria-hidden="true" role="img" class="iconify iconify--gis"
     preserveAspectRatio="xMidYMid meet">
    <path d="M50 0C22.427 0 0 22.427 0 50s22.427 50 50 50s50-22.427 50-50S77.573 0 50 0zm2.506 7.078c12.818.733 24.105 7.053 31.486 16.568c-1.948-.05-3.887-.062-5.818-.033a138.28 138.28 0 0 0-10.04.532a7.5 7.5 0 0 0-6.747-4.23a7.5 7.5 0 0 0-1.043.073a124.289 124.289 0 0 0-7.838-12.91zm-6.078.08c3.637 4.969 6.79 10.013 9.488 15.127a7.5 7.5 0 0 0-1.92 3.858a140.675 140.675 0 0 0-13.83 3.43a7.5 7.5 0 0 0-2.082-1.917c1.887-6.735 4.527-13.559 7.902-20.465c.147-.013.295-.02.442-.033zm-6.44 1.022c-2.82 6.165-5.07 12.307-6.744 18.41a7.5 7.5 0 0 0-5.13 2.978a170.51 170.51 0 0 0-13.698-3.748A42.954 42.954 0 0 1 39.988 8.18zm41.123 20.418c2.092.013 4.194.08 6.307.19a42.719 42.719 0 0 1 5.037 14.366c-6.05.984-11.94 2.347-17.674 4.065a7.5 7.5 0 0 0-5.043-2.746a107.837 107.837 0 0 0-3.517-11.327a7.5 7.5 0 0 0 2.472-4.048c4.099-.356 8.236-.527 12.418-.5zM11.732 30.36c5.102 1.123 10.08 2.436 14.913 3.979a7.5 7.5 0 0 0 .001.03c-6.508 2.673-12.907 5.825-19.199 9.437a42.72 42.72 0 0 1 4.285-13.446zm43.094.684a7.5 7.5 0 0 0 6.56 3.87a7.5 7.5 0 0 0 .202-.005a101.851 101.851 0 0 1 3.336 10.694a7.5 7.5 0 0 0-1.057.81A142.695 142.695 0 0 0 41.62 34.57a7.5 7.5 0 0 0 .014-.256a135.084 135.084 0 0 1 13.193-3.27zm-26.32 7.941a7.5 7.5 0 0 0 1.93 1.57c-1.232 9.641-.959 19.147.921 28.446a167.383 167.383 0 0 0-12.79 10.355C11.392 71.677 7 61.366 7 50c0-.047.004-.092.004-.139c7.047-4.234 14.21-7.87 21.502-10.875zm11.121.159a137.068 137.068 0 0 1 21.902 11.697a7.5 7.5 0 0 0-.082 1.09a7.5 7.5 0 0 0 0 .047c-8.96 3.725-17.514 8.38-25.672 13.914c-1.41-7.998-1.56-16.15-.507-24.444a7.5 7.5 0 0 0 4.359-2.304zm53.326 8.994c.026.617.047 1.237.047 1.861a42.929 42.929 0 0 1-3.783 17.666a140.036 140.036 0 0 0-13.469-12.572a7.5 7.5 0 0 0 .7-3.147a134.787 134.787 0 0 1 16.505-3.808zm-29.818 8.529a7.5 7.5 0 0 0 4.25 2.598c1.094 9.909.76 20.066-.932 30.48A42.976 42.976 0 0 1 50 93c-1.477 0-2.937-.074-4.375-.219c-4.012-7.064-6.909-14.27-8.729-21.607c8.328-5.823 17.063-10.675 26.239-14.506zm9.181 2.06a135.865 135.865 0 0 1 14.438 13.637A43.083 43.083 0 0 1 71.906 87.02c1.285-9.602 1.44-19.043.41-28.291zm-39.71 15.555c1.59 5.893 3.834 11.697 6.753 17.393a42.817 42.817 0 0 1-17.162-8.858c3.397-3.02 6.865-5.87 10.408-8.535z"></path>
</svg>