<?xml version="1.0" encoding="iso-8859-1"?>
<svg version="1.1" id="Capa_1" xmlns="http://www.w3.org/2000/svg" x="0px"
     y="0px"
     width="392.189px" height="392.189px" viewBox="0 0 392.189 392.189"
     style="enable-background:new 0 0 392.189 392.189;"
     xml:space="preserve">
<g>
	<g>
		<g>
			<g>
				<path d="M272.473,178.455c-1.428-1.271-3.496-1.703-5.312-1.101l-7.014,2.318c-16.054-22.044-40.867-34.66-68.262-34.66
					c-27.15,0-52.813,13.159-68.648,35.202c-0.861,1.2-1.198,2.721-0.924,4.172c0.275,1.454,1.145,2.747,2.384,3.548l13.203,8.54
					c0.881,0.571,1.9,0.872,2.946,0.872c1.718,0,3.352-0.825,4.369-2.208c11.039-14.982,28.05-23.575,46.67-23.575
					c15.479,0,30.335,6.198,41.125,17.082l-4.224,1.396c-1.834,0.606-3.217,2.159-3.608,4.05c-0.393,1.893,0.261,3.866,1.703,5.152
					l30.17,26.884c0.994,0.887,2.277,1.375,3.609,1.375c0.584,0,1.158-0.093,1.701-0.272c1.836-0.606,3.219-2.158,3.61-4.052
					l8.201-39.573C274.566,181.715,273.914,179.741,272.473,178.455z"/>
                <path d="M267.492,259.553l-13.205-8.543c-0.881-0.568-1.898-0.871-2.943-0.871c-1.719,0-3.354,0.826-4.371,2.209
					c-11.041,14.982-28.051,23.576-46.67,23.576c-15.479,0-30.333-6.198-41.124-17.082l4.223-1.396
					c1.834-0.607,3.217-2.16,3.609-4.053c0.392-1.892-0.261-3.863-1.703-5.149l-30.171-26.884c-1.429-1.273-3.529-1.696-5.311-1.103
					c-1.835,0.605-3.218,2.157-3.611,4.052l-8.202,39.571c-0.392,1.892,0.261,3.864,1.703,5.15c1.427,1.271,3.495,1.703,5.313,1.102
					l7.013-2.317c16.052,22.044,40.867,34.66,68.261,34.66c27.15,0,52.813-13.16,68.648-35.202c0.861-1.199,1.197-2.721,0.924-4.173
					C269.603,261.647,268.73,260.354,267.492,259.553z"/>
			</g>
            <path d="M368.621,17.953H23.568C10.573,17.953,0,28.526,0,41.522v309.146c0,12.996,10.573,23.568,23.568,23.568h345.053
				c12.996,0,23.568-10.572,23.568-23.568V41.523C392.189,28.527,381.615,17.953,368.621,17.953z M297.561,57.53
				c0-4.806,3.896-8.702,8.701-8.702h8.703c4.808,0,8.703,3.896,8.703,8.702v9.863c0,4.806-3.896,8.702-8.703,8.702h-8.703
				c-4.805,0-8.701-3.896-8.701-8.702V57.53z M257.094,57.53c0-4.806,3.898-8.702,8.703-8.702h8.701
				c4.807,0,8.703,3.896,8.703,8.702v9.863c0,4.806-3.896,8.702-8.703,8.702h-8.701c-4.805,0-8.703-3.896-8.703-8.702V57.53z
				 M363.906,345.953H28.282V102.237h335.622v243.716H363.906z M364.133,67.393c0,4.806-3.896,8.702-8.701,8.702h-8.703
				c-4.807,0-8.702-3.896-8.702-8.702V57.53c0-4.806,3.896-8.702,8.702-8.702h8.703c4.806,0,8.701,3.896,8.701,8.702V67.393z"/>
		</g>
	</g>
</g>
    <g>
</g>
    <g>
</g>
    <g>
</g>
    <g>
</g>
    <g>
</g>
    <g>
</g>
    <g>
</g>
    <g>
</g>
    <g>
</g>
    <g>
</g>
    <g>
</g>
    <g>
</g>
    <g>
</g>
    <g>
</g>
    <g>
</g>
</svg>
