<svg width="180" height="180" viewBox="0 0 180 180" fill="none" xmlns="http://www.w3.org/2000/svg">
<g clip-path="url(#clip0_834_164)">
<rect width="180" height="180" rx="40" fill="#0E0143"/>
<path fill-rule="evenodd" clip-rule="evenodd" d="M97.9191 125.747L106.355 138H137.482L127.298 123.21L97.9191 125.747ZM87.9795 111.309L87.8937 111.184L72.1277 138H42.078L72.9362 89.3546L41 43H72.1277L90.0497 69.1419L105.411 43H135.461L105.007 90.8369L116.936 108.161L88.0408 111.205L87.9795 111.309Z" fill="white"/>
<path d="M167.632 104.614C169.337 105.392 169.535 107.671 167.988 108.715L143.979 124.925C142.432 125.969 140.301 124.996 140.143 123.173L137.688 94.8819C137.53 93.059 139.464 91.7535 141.169 92.5319L167.632 104.614Z" fill="#F7F7F7"/>
</g>
<defs>
<clipPath id="clip0_834_164">
<rect width="180" height="180" fill="white"/>
</clipPath>
</defs>
</svg>
